<mxfile host="65bd71144e">
    <diagram id="STXdUgvK2TSoER9i8NJK" name="ページ1">
        <mxGraphModel dx="994" dy="918" grid="0" gridSize="10" guides="1" tooltips="1" connect="1" arrows="1" fold="1" page="0" pageScale="1" pageWidth="827" pageHeight="1169" background="#ffffff" math="0" shadow="0">
            <root>
                <mxCell id="0"/>
                <mxCell id="1" parent="0"/>
                <mxCell id="56" value="" style="rounded=1;whiteSpace=wrap;html=1;labelBackgroundColor=none;labelBorderColor=#0000FF;strokeColor=#3399FF;fontColor=default;fillColor=none;" vertex="1" parent="1">
                    <mxGeometry x="-110" y="160" width="130" height="160" as="geometry"/>
                </mxCell>
                <mxCell id="111" value="" style="rounded=1;whiteSpace=wrap;html=1;labelBackgroundColor=none;labelBorderColor=#0000FF;strokeColor=#3399FF;fontColor=default;fillColor=none;" vertex="1" parent="1">
                    <mxGeometry x="499" y="230" width="130" height="160" as="geometry"/>
                </mxCell>
                <mxCell id="114" value="" style="swimlane;startSize=0;labelBackgroundColor=none;labelBorderColor=#0000FF;strokeColor=none;fontFamily=Helvetica;fontColor=default;fillColor=none;html=1;" vertex="1" parent="1">
                    <mxGeometry x="-179" width="889" height="480" as="geometry"/>
                </mxCell>
                <mxCell id="118" value="" style="rounded=1;whiteSpace=wrap;html=1;labelBackgroundColor=none;labelBorderColor=#0000FF;strokeColor=#3399FF;fontColor=default;fillColor=none;" vertex="1" parent="114">
                    <mxGeometry x="300" y="90" width="280" height="300" as="geometry"/>
                </mxCell>
                <mxCell id="3" value="" style="points=[[0,0,0],[0.25,0,0],[0.5,0,0],[0.75,0,0],[1,0,0],[0,1,0],[0.25,1,0],[0.5,1,0],[0.75,1,0],[1,1,0],[0,0.25,0],[0,0.5,0],[0,0.75,0],[1,0.25,0],[1,0.5,0],[1,0.75,0]];outlineConnect=0;fontColor=#232F3E;gradientColor=#F78E04;gradientDirection=north;fillColor=#D05C17;strokeColor=#ffffff;dashed=0;verticalLabelPosition=bottom;verticalAlign=top;align=center;html=1;fontSize=12;fontStyle=0;aspect=fixed;shape=mxgraph.aws4.resourceIcon;resIcon=mxgraph.aws4.lambda;" vertex="1" parent="114">
                    <mxGeometry x="326" y="201" width="78" height="78" as="geometry"/>
                </mxCell>
                <mxCell id="87" value="" style="endArrow=classic;html=1;strokeColor=#000000;fontFamily=Helvetica;fontColor=default;" edge="1" parent="114">
                    <mxGeometry width="50" height="50" relative="1" as="geometry">
                        <mxPoint x="430" y="280" as="sourcePoint"/>
                        <mxPoint x="460" y="280" as="targetPoint"/>
                    </mxGeometry>
                </mxCell>
                <mxCell id="51" value="ベンチマーカー" style="rounded=0;fillColor=none;fontColor=#0000FF;strokeColor=none;whiteSpace=wrap;html=1;labelBackgroundColor=none;fontFamily=Helvetica;" vertex="1" parent="114">
                    <mxGeometry x="385" y="98" width="110" height="30" as="geometry"/>
                </mxCell>
                <mxCell id="95" value="" style="endArrow=classic;html=1;strokeColor=#000000;fontFamily=Helvetica;fontColor=default;entryX=0.5;entryY=1;entryDx=0;entryDy=0;" edge="1" parent="114">
                    <mxGeometry width="50" height="50" relative="1" as="geometry">
                        <mxPoint x="499" y="249" as="sourcePoint"/>
                        <mxPoint x="499" y="231" as="targetPoint"/>
                    </mxGeometry>
                </mxCell>
                <mxCell id="48" value="" style="sketch=0;points=[[0,0,0],[0.25,0,0],[0.5,0,0],[0.75,0,0],[1,0,0],[0,1,0],[0.25,1,0],[0.5,1,0],[0.75,1,0],[1,1,0],[0,0.25,0],[0,0.5,0],[0,0.75,0],[1,0.25,0],[1,0.5,0],[1,0.75,0]];outlineConnect=0;fontColor=#232F3E;gradientColor=#F78E04;gradientDirection=north;fillColor=#D05C17;strokeColor=#ffffff;dashed=0;verticalLabelPosition=bottom;verticalAlign=top;align=center;html=1;fontSize=12;fontStyle=0;aspect=fixed;shape=mxgraph.aws4.resourceIcon;resIcon=mxgraph.aws4.fargate;labelBackgroundColor=none;labelBorderColor=#0000FF;fontFamily=Helvetica;" vertex="1" parent="114">
                    <mxGeometry x="460" y="251" width="78" height="78" as="geometry"/>
                </mxCell>
                <mxCell id="5" value="" style="points=[[0,0,0],[0.25,0,0],[0.5,0,0],[0.75,0,0],[1,0,0],[0,1,0],[0.25,1,0],[0.5,1,0],[0.75,1,0],[1,1,0],[0,0.25,0],[0,0.5,0],[0,0.75,0],[1,0.25,0],[1,0.5,0],[1,0.75,0]];outlineConnect=0;fontColor=#232F3E;gradientColor=#FF4F8B;gradientDirection=north;fillColor=#BC1356;strokeColor=#ffffff;dashed=0;verticalLabelPosition=bottom;verticalAlign=top;align=center;html=1;fontSize=12;fontStyle=0;aspect=fixed;shape=mxgraph.aws4.resourceIcon;resIcon=mxgraph.aws4.sqs;" vertex="1" parent="114">
                    <mxGeometry x="460" y="150" width="78" height="78" as="geometry"/>
                </mxCell>
                <mxCell id="52" value="AWS Fargate" style="rounded=0;whiteSpace=wrap;html=1;fillColor=none;fontColor=#000000;strokeColor=none;" vertex="1" parent="114">
                    <mxGeometry x="444" y="329" width="110" height="30" as="geometry"/>
                </mxCell>
                <mxCell id="45" value="Amazon SQS" style="rounded=0;whiteSpace=wrap;html=1;fillColor=none;fontColor=#000000;strokeColor=none;" vertex="1" parent="114">
                    <mxGeometry x="445" y="122" width="110" height="30" as="geometry"/>
                </mxCell>
                <mxCell id="123" value="" style="endArrow=classic;html=1;strokeColor=#000000;fontFamily=Helvetica;fontColor=default;exitX=1;exitY=0.5;exitDx=0;exitDy=0;entryX=1;entryY=0.688;entryDx=0;entryDy=0;entryPerimeter=0;" edge="1" parent="114" target="56">
                    <mxGeometry width="50" height="50" relative="1" as="geometry">
                        <mxPoint x="300" y="270" as="sourcePoint"/>
                        <mxPoint x="230" y="270" as="targetPoint"/>
                    </mxGeometry>
                </mxCell>
                <mxCell id="125" value="ベンチマークの&lt;br&gt;結果を送信" style="rounded=0;whiteSpace=wrap;html=1;fillColor=none;fontColor=#000000;strokeColor=none;" vertex="1" parent="114">
                    <mxGeometry x="569" y="294" width="120" height="60" as="geometry"/>
                </mxCell>
                <mxCell id="41" value="AWS Lambda" style="rounded=0;whiteSpace=wrap;html=1;fillColor=none;fontColor=#000000;strokeColor=none;" vertex="1" parent="114">
                    <mxGeometry x="310" y="279" width="110" height="30" as="geometry"/>
                </mxCell>
                <mxCell id="36" value="競技用サーバー" style="rounded=0;whiteSpace=wrap;html=1;fillColor=none;fontColor=#0000FF;strokeColor=none;" vertex="1" parent="114">
                    <mxGeometry x="83" y="168" width="110" height="30" as="geometry"/>
                </mxCell>
                <mxCell id="60" value="ポータル" style="rounded=0;fillColor=none;fontColor=#0000FF;strokeColor=none;whiteSpace=wrap;html=1;labelBackgroundColor=none;fontFamily=Helvetica;" vertex="1" parent="114">
                    <mxGeometry x="689" y="238" width="110" height="30" as="geometry"/>
                </mxCell>
                <mxCell id="61" value="AWS Amplify" style="rounded=0;whiteSpace=wrap;html=1;fillColor=none;fontColor=#000000;strokeColor=none;" vertex="1" parent="1">
                    <mxGeometry x="509" y="346" width="110" height="30" as="geometry"/>
                </mxCell>
                <mxCell id="67" value="" style="rounded=1;whiteSpace=wrap;html=1;labelBackgroundColor=none;labelBorderColor=#0000FF;strokeColor=#3399FF;fontColor=default;fillColor=none;" vertex="1" parent="1">
                    <mxGeometry x="499" y="89" width="130" height="111" as="geometry"/>
                </mxCell>
                <mxCell id="2" value="" style="points=[[0,0,0],[0.25,0,0],[0.5,0,0],[0.75,0,0],[1,0,0],[0,1,0],[0.25,1,0],[0.5,1,0],[0.75,1,0],[1,1,0],[0,0.25,0],[0,0.5,0],[0,0.75,0],[1,0.25,0],[1,0.5,0],[1,0.75,0]];outlineConnect=0;fontColor=#232F3E;gradientColor=#F78E04;gradientDirection=north;fillColor=#D05C17;strokeColor=#ffffff;dashed=0;verticalLabelPosition=bottom;verticalAlign=top;align=center;html=1;fontSize=12;fontStyle=0;aspect=fixed;shape=mxgraph.aws4.resourceIcon;resIcon=mxgraph.aws4.compute;" vertex="1" parent="1">
                    <mxGeometry x="-84" y="200" width="78" height="78" as="geometry"/>
                </mxCell>
                <mxCell id="10" value="ベンチマークを&lt;br&gt;リクエスト" style="rounded=0;whiteSpace=wrap;html=1;fillColor=none;fontColor=#000000;strokeColor=none;" vertex="1" parent="1">
                    <mxGeometry x="10" y="193" width="120" height="60" as="geometry"/>
                </mxCell>
                <mxCell id="37" value="Amazon EC2" style="rounded=0;whiteSpace=wrap;html=1;fillColor=none;fontColor=#000000;strokeColor=none;" vertex="1" parent="1">
                    <mxGeometry x="-100" y="278" width="110" height="30" as="geometry"/>
                </mxCell>
                <mxCell id="46" value="" style="sketch=0;points=[[0,0,0],[0.25,0,0],[0.5,0,0],[0.75,0,0],[1,0,0],[0,1,0],[0.25,1,0],[0.5,1,0],[0.75,1,0],[1,1,0],[0,0.25,0],[0,0.5,0],[0,0.75,0],[1,0.25,0],[1,0.5,0],[1,0.75,0]];outlineConnect=0;fontColor=#232F3E;gradientColor=#F54749;gradientDirection=north;fillColor=#C7131F;strokeColor=#ffffff;dashed=0;verticalLabelPosition=bottom;verticalAlign=top;align=center;html=1;fontSize=12;fontStyle=0;aspect=fixed;shape=mxgraph.aws4.resourceIcon;resIcon=mxgraph.aws4.amplify;labelBackgroundColor=none;labelBorderColor=#0000FF;fontFamily=Helvetica;" vertex="1" parent="1">
                    <mxGeometry x="525" y="268" width="78" height="78" as="geometry"/>
                </mxCell>
                <mxCell id="63" value="" style="shape=actor;whiteSpace=wrap;html=1;labelBackgroundColor=none;labelBorderColor=#0000FF;strokeColor=#3399FF;fontFamily=Helvetica;fontColor=default;fillColor=none;" vertex="1" parent="1">
                    <mxGeometry x="524.5" y="114.5" width="79" height="79" as="geometry"/>
                </mxCell>
                <mxCell id="65" value="参加者" style="rounded=0;fillColor=none;fontColor=#0000FF;strokeColor=none;whiteSpace=wrap;html=1;labelBackgroundColor=none;fontFamily=Helvetica;" vertex="1" parent="1">
                    <mxGeometry x="509" y="88" width="110" height="30" as="geometry"/>
                </mxCell>
                <mxCell id="83" value="" style="endArrow=none;html=1;strokeColor=#000000;fontFamily=Helvetica;fontColor=default;" edge="1" parent="1">
                    <mxGeometry width="50" height="50" relative="1" as="geometry">
                        <mxPoint x="225" y="240" as="sourcePoint"/>
                        <mxPoint x="252" y="240" as="targetPoint"/>
                    </mxGeometry>
                </mxCell>
                <mxCell id="84" value="" style="endArrow=none;html=1;strokeColor=#000000;fontFamily=Helvetica;fontColor=default;" edge="1" parent="1">
                    <mxGeometry width="50" height="50" relative="1" as="geometry">
                        <mxPoint x="251" y="280" as="sourcePoint"/>
                        <mxPoint x="251" y="200" as="targetPoint"/>
                    </mxGeometry>
                </mxCell>
                <mxCell id="99" value="" style="endArrow=classic;html=1;strokeColor=#000000;fontFamily=Helvetica;fontColor=default;exitX=1;exitY=0.5;exitDx=0;exitDy=0;" edge="1" parent="1" source="56">
                    <mxGeometry width="50" height="50" relative="1" as="geometry">
                        <mxPoint x="123" y="140" as="sourcePoint"/>
                        <mxPoint x="120" y="240" as="targetPoint"/>
                    </mxGeometry>
                </mxCell>
                <mxCell id="105" value="" style="endArrow=classic;html=1;strokeColor=#000000;fontFamily=Helvetica;fontColor=default;" edge="1" parent="1">
                    <mxGeometry width="50" height="50" relative="1" as="geometry">
                        <mxPoint x="564" y="201" as="sourcePoint"/>
                        <mxPoint x="564" y="230" as="targetPoint"/>
                    </mxGeometry>
                </mxCell>
                <mxCell id="116" value="" style="endArrow=classic;html=1;strokeColor=#000000;fontFamily=Helvetica;fontColor=default;" edge="1" parent="1">
                    <mxGeometry width="50" height="50" relative="1" as="geometry">
                        <mxPoint x="251" y="200" as="sourcePoint"/>
                        <mxPoint x="281" y="200" as="targetPoint"/>
                    </mxGeometry>
                </mxCell>
                <mxCell id="120" value="" style="endArrow=classic;html=1;strokeColor=#000000;fontFamily=Helvetica;fontColor=default;exitX=1;exitY=0.5;exitDx=0;exitDy=0;" edge="1" parent="1">
                    <mxGeometry width="50" height="50" relative="1" as="geometry">
                        <mxPoint x="400" y="300" as="sourcePoint"/>
                        <mxPoint x="500" y="300" as="targetPoint"/>
                    </mxGeometry>
                </mxCell>
                <mxCell id="124" value="ベンチマークの&lt;br&gt;結果を送信" style="rounded=0;whiteSpace=wrap;html=1;fillColor=none;fontColor=#000000;strokeColor=none;" vertex="1" parent="1">
                    <mxGeometry x="10" y="268" width="120" height="60" as="geometry"/>
                </mxCell>
            </root>
        </mxGraphModel>
    </diagram>
</mxfile>
